HIERARCHY
ROOT Hips
{
  OFFSET 0 0 0
  CHANNELS 6 Xposition Yposition Zposition Zrotation Yrotation Xrotation
  JOINT LeftThigh
  {
    OFFSET 8.409438 0 -5.917753
    CHANNELS 3 Zrotation Yrotation Xrotation
    JOINT LeftLeg
    {
      OFFSET 0 0 -42.358652
      CHANNELS 3 Zrotation Yrotation Xrotation
      JOINT LeftFoot
      {
        OFFSET 0 0 -39.357303
        CHANNELS 3 Zrotation Yrotation Xrotation
      }
    }
  }
  JOINT RightThigh
  {
    OFFSET -8.409438 0 -5.917753
    CHANNELS 3 Zrotation Yrotation Xrotation
    JOINT RightLeg
    {
      OFFSET 0 0 -42.358652
      CHANNELS 3 Zrotation Yrotation Xrotation
      JOINT RightFoot
      {
        OFFSET 0 0 -39.357303
        CHANNELS 3 Zrotation Yrotation Xrotation
      }
    }
  }
  JOINT SpineLow
  {
    OFFSET 0 0 4.719101
    CHANNELS 3 Zrotation Yrotation Xrotation
    JOINT SpineMid
    {
      OFFSET 0 0 12.899191
      CHANNELS 3 Zrotation Yrotation Xrotation
      JOINT Chest
      {
        OFFSET 0 0 12.899191
        CHANNELS 3 Zrotation Yrotation Xrotation
        JOINT LeftShoulder
        {
          OFFSET 7.550562 1.41573 9.438202
          CHANNELS 3 Zrotation Yrotation Xrotation
          JOINT LeftArm
          {
            OFFSET 9.155056 0 4.247191
            CHANNELS 3 Zrotation Yrotation Xrotation
            JOINT LeftForearm
            {
              OFFSET 0 0 25.771955
              CHANNELS 3 Zrotation Yrotation Xrotation
              JOINT LeftHand
              {
                OFFSET 0 0 25.197169
                CHANNELS 3 Zrotation Yrotation Xrotation
              }
            }
          }
        }
        JOINT RightShoulder
        {
          OFFSET -7.550562 1.41573 9.438202
          CHANNELS 3 Zrotation Yrotation Xrotation
          JOINT RightArm
          {
            OFFSET -9.155056 0 4.247191
            CHANNELS 3 Zrotation Yrotation Xrotation
            JOINT RightForearm
            {
              OFFSET 0 0 -25.771955
              CHANNELS 3 Zrotation Yrotation Xrotation
              JOINT RightHand
              {
                OFFSET 0 0 -25.197169
                CHANNELS 3 Zrotation Yrotation Xrotation
              }
            }
          }
        }
        JOINT Neck
        {
          OFFSET 0 0 15.101124
          CHANNELS 3 Zrotation Yrotation Xrotation
          JOINT Head
          {
            OFFSET 0 0 11.325843
            CHANNELS 3 Zrotation Yrotation Xrotation
            End Site
            {
              OFFSET 0 0 14.157303
            }
          }
        }
      }
    }
  }
}
MOTION
Frames: 11
Frame Time: 0.0
0.0  93.25843  0.0  -4.509726  5.777488  -87.447926  1.977199  -23.22375  -23.425253  2.141964  3.110736  33.006417  7.405436  2.749867  6.457412  -31.752836  -5.93436  -22.798472  -10.011584  22.131595  33.127035  16.637587  8.167557  -1.073567  5.794591  0.084218  -0.816046  15.834206  0.423373  -2.19582  15.834207  0.423373  -2.19582  12.321213  18.931927  12.011211  175.907768  21.004422  176.394677  -8.915184  33.574952  99.112993  87.598453  -63.150628  -45.450136  13.561494  3.790949  18.315312  -176.562316  56.873831  162.548719  -33.69519  0.982318  -130.768327  89.236704  27.269215  12.042017  -28.885021  -2.31781  4.023279  -21.646732  -1.933959  2.91506  
0.0  93.25843  0.0  -4.562859  4.84886  -87.730136  2.495144  -22.94865  -22.685891  2.179654  2.625288  32.615326  7.163791  2.683662  6.371329  -31.161661  -5.935896  -22.487511  -9.706314  21.953773  32.812789  17.315882  8.372247  -0.931151  5.73542  0.041098  -0.791564  15.67401  0.298561  -2.140007  15.67401  0.298561  -2.140007  12.133702  18.944412  12.064345  175.674113  20.943142  176.372791  -8.584264  32.551115  99.514373  88.43847  -60.825947  -47.192653  13.275355  3.474571  18.448876  -173.833685  58.90032  162.766519  -33.664837  2.086497  -128.625616  87.815376  27.278006  12.563081  -28.471483  -2.253362  3.9822  -21.337315  -1.880688  2.888574  
0.0  93.25843  0.0  -4.572373  3.747792  -88.047545  2.808039  -22.756958  -21.790367  2.284342  2.218249  32.176405  6.988509  2.672466  6.286756  -30.248666  -5.803828  -22.130362  -9.734043  21.783999  32.309405  17.309991  8.242917  -0.87805  5.676254  -0.004072  -0.75249  15.513895  0.164855  -2.044813  15.513896  0.164855  -2.044812  12.000445  19.014091  12.062138  175.495248  20.980178  176.423619  -8.171211  31.225096  99.995282  88.509963  -57.937509  -48.072967  13.007285  3.205614  18.561814  -172.874281  61.07224  163.257582  -34.620083  2.558588  -128.165713  86.39514  27.17027  13.022492  -27.955614  -2.165662  3.928625  -20.951379  -1.808729  2.854004  
0.0  93.25843  0.0  -4.528683  2.516906  -88.368103  2.853753  -22.720559  -20.775717  2.520375  2.023757  31.679337  7.033983  2.670823  6.250187  -29.086505  -5.55565  -21.760029  -9.85957  21.576032  31.723145  17.553303  8.189492  -0.808273  5.613029  -0.048522  -0.700602  15.342578  0.030176  -1.914411  15.342578  0.030176  -1.914411  11.891509  19.164237  11.992687  175.395705  21.144347  176.539576  -7.693605  29.556008  100.512476  87.988288  -54.435306  -48.118835  12.76282  2.940018  18.606776  -172.374157  63.264596  163.226289  -35.672128  3.125565  -127.655999  84.994264  26.908507  13.40914  -27.335893  -2.051147  3.850646  -20.487824  -1.714929  2.802465  
0.0  93.25843  0.0  -4.48448  1.128924  -88.703185  2.732853  -22.873326  -19.626512  3.031601  2.014676  31.128098  7.280316  2.587685  6.273221  -27.752582  -5.28167  -21.356927  -10.09742  21.3153  31.019814  17.538088  8.008762  -0.743803  5.552379  -0.101276  -0.640012  15.178349  -0.128752  -1.761998  15.178349  -0.128751  -1.761998  11.806983  19.419801  11.907063  175.425132  21.470906  176.754577  -7.104835  27.584851  101.137865  87.327772  -50.140829  -47.623297  12.419922  2.737485  18.601011  -172.467266  65.507652  162.45161  -36.854265  3.766068  -127.10491  83.574941  26.467853  13.604231  -26.620333  -1.896543  3.747846  -19.952734  -1.589471  2.734075  
0.0  93.25843  0.0  -4.449492  -0.379446  -89.056098  2.611657  -23.145829  -18.351528  3.826643  2.038779  30.546911  7.550218  2.486984  6.346703  -26.272162  -5.009613  -20.904709  -10.288449  20.983605  30.278686  17.578129  7.885677  -0.676334  5.49412  -0.15679  -0.571751  15.020467  -0.296596  -1.58907  15.020466  -0.296596  -1.58907  11.695486  19.685084  11.784292  175.587866  21.916426  177.088801  -6.445332  25.2247  101.832101  86.627914  -45.106394  -46.638604  11.981855  2.537812  18.506578  -173.535278  67.787693  160.564212  -38.10279  4.460974  -126.473271  82.156994  25.873605  13.505241  -25.825027  -1.726436  3.628286  -19.357904  -1.451431  2.653599  
0.0  93.25843  0.0  -4.402053  -1.951949  -89.431337  2.541276  -23.371182  -17.017266  4.739726  1.923639  29.895593  7.599557  2.381416  6.356249  -24.758726  -4.709605  -20.403646  -10.557907  20.572902  29.439343  17.497108  7.690803  -0.596872  5.436871  -0.213367  -0.503825  14.865082  -0.466949  -1.416988  14.865083  -0.466949  -1.416989  11.489443  19.973866  11.648937  175.933831  22.533558  177.525212  -5.654089  22.419191  102.553295  86.15608  -39.799206  -45.508271  11.414578  2.377769  18.292803  -176.239555  70.129998  156.867297  -39.394691  5.194135  -125.722791  80.804357  25.196941  13.10979  -24.990223  -1.532715  3.515288  -18.733502  -1.296033  2.578691  
0.0  93.25843  0.0  -4.37228  -3.491206  -89.783536  2.732559  -23.452804  -15.62242  5.574451  1.622142  29.12328  7.460198  2.309376  6.366412  -23.365089  -4.405594  -19.863118  -10.759214  20.041481  28.529974  17.670342  7.603897  -0.47511  5.384934  -0.271879  -0.446661  14.724057  -0.639791  -1.274321  14.724058  -0.639791  -1.274321  11.034573  20.272577  11.534828  176.453265  23.266097  178.102061  -4.628659  19.233467  103.421165  85.991997  -34.053673  -44.153317  10.711334  2.199899  18.103242  178.920697  72.381926  151.020253  -40.799285  5.981174  -124.849493  79.587131  24.426834  12.517015  -24.164763  -1.326777  3.430706  -18.116021  -1.132996  2.525094  
0.0  93.25843  0.0  -4.286676  -4.983855  -90.20632  2.836327  -23.269646  -14.200027  6.225947  1.138089  28.194518  7.305486  2.217368  6.364177  -22.157407  -3.962221  -19.235747  -10.922008  19.373266  27.529821  17.593134  7.340109  -0.375186  5.325883  -0.337805  -0.388634  14.563489  -0.832895  -1.130576  14.563487  -0.832895  -1.130576  10.443384  20.638692  11.503901  177.001012  24.031927  178.838041  -3.418886  15.762385  104.516502  87.262661  -28.935334  -41.967695  9.752715  2.129643  17.934797  171.203928  74.391981  142.045723  -42.299177  6.842037  -123.850723  78.462278  23.549966  11.722699  -23.353033  -1.069929  3.385777  -17.509  -0.933583  2.502682  
0.0  93.25843  0.0  -4.195173  -6.310277  -90.63879  2.912069  -22.978999  -12.769875  6.673771  0.672305  27.147824  7.262711  2.14129  6.398177  -21.250864  -3.450575  -18.529974  -10.894115  18.576162  26.470934  17.725887  7.146244  -0.249752  5.222666  -0.41461  -0.337996  14.28224  -1.054448  -1.00826  14.28224  -1.054448  -1.00826  9.808672  21.094801  11.504151  177.510303  24.801889  179.761478  -2.416477  12.101337  105.558782  87.12077  -22.504779  -39.23315  8.842803  2.069608  17.926044  160.481373  75.933363  130.051186  -43.73857  7.745461  -122.789798  77.420335  22.512553  10.725304  -22.420476  -0.759645  3.380375  -16.811538  -0.694978  2.511371  
0.0  93.25843  0.0  -4.135907  -7.512648  -91.037763  2.849952  -22.657543  -11.350265  6.95258  0.227839  25.88753  7.349828  2.025738  6.450573  -20.62579  -2.940987  -17.794164  -10.925866  17.717789  25.274449  17.682953  6.809178  -0.148015  5.081542  -0.496649  -0.295449  13.897353  -1.288745  -0.907633  13.897353  -1.288745  -0.907633  9.220761  21.606457  11.457607  177.917985  25.562156  -179.171391  -1.385367  8.635776  106.597698  87.037333  -15.991224  -36.343853  7.755523  2.103006  17.964534  147.050149  76.825348  115.105176  -44.951478  8.66013  -121.700537  76.437379  21.383434  9.564626  -21.457124  -0.439479  3.373959  -16.090932  -0.448826  2.518706  
